<?xml version="1.0" encoding="UTF-8" standalone="no"?>
<!-- Created with Inkscape (http://www.inkscape.org/) -->

<svg
   width="165.13599"
   height="31.999998"
   viewBox="0 0 165.13599 32"
   version="1.1"
   id="svg1"
   xml:space="preserve"
   xmlns="http://www.w3.org/2000/svg"
   xmlns:svg="http://www.w3.org/2000/svg"><defs
     id="defs1" /><g
     id="layer1"
     transform="translate(0,204.1662)"><g
       id="g6"
       transform="matrix(0.06857143,0,0,0.06857143,0,-190.16624)"><path
         id="rect1"
         style="display:inline;fill:#241f21;fill-opacity:1;stroke-width:1.45131"
         d="M -1000,0 H -85 C -37.910005,0 0,42.33709 0,89.999996 V 406.99998 h -1000 z"
         transform="scale(-1,1)" /><path
         d="m 171.4924,235.67664 c 0,0 0,22.09973 0,22.09973 0,0 -102.993074,0 -102.993074,0 0,0 0,-108.96973 0,-108.96973 0,0 102.993074,0 102.993074,0 0,0 0,22.09972 0,22.09972 0,0 -79.364433,0 -79.364433,0 0,0 0,21.82175 0,21.82175 0,0 53.511923,0 53.511923,0 0,0 0,20.98779 0,20.98779 0,0 -53.511923,0 -53.511923,0 0,0 0,21.96074 0,21.96074 z m 68.10619,22.09973 c 0,0 -23.62864,0 -23.62864,0 0,0 0,-112.72252 0,-112.72252 0,0 86.31404,70.46895 86.31404,70.46895 0,0 0,-66.71616 0,-66.71616 0,0 23.48965,0 23.48965,0 0,0 0,113.13949 0,113.13949 0,0 -86.17505,-70.19096 -86.17505,-70.19096 z m 145.80252,-15.28912 c -11.95331,-10.98037 -17.92997,-24.04562 -17.92997,-39.19575 0,-15.01114 5.97666,-28.07638 17.92997,-39.19574 11.67533,-10.5634 25.85251,-15.84509 42.39256,-15.84509 10.4244,0 20.29283,2.36286 29.46631,6.9496 9.31246,4.58673 16.67904,11.11936 22.09972,19.31989 0,0 -19.0419,13.62121 -19.0419,13.62121 -6.67162,-10.98037 -19.04191,-17.23501 -32.52413,-17.23501 -10.14642,0 -18.90291,3.19682 -25.9915,9.45146 -7.0886,6.25464 -10.70239,13.8992 -10.70239,22.93368 0,8.89549 3.61379,16.54005 10.70239,22.93368 7.22758,6.25464 15.84508,9.45146 25.9915,9.45146 13.48222,0 25.99151,-6.53263 32.80211,-17.65199 0,0 19.1809,13.20424 19.1809,13.20424 -5.42069,8.47852 -12.78726,15.01114 -22.09973,19.87586 -9.31246,4.86472 -19.1809,7.22759 -29.88328,7.22759 -16.40106,0 -30.57824,-5.2817 -42.39256,-15.84509 z m 190.97502,15.84509 c -16.54005,0 -30.85623,-5.2817 -42.67055,-15.98409 -11.81432,-10.70238 -17.65198,-23.62864 -17.65198,-39.05675 0,-15.42811 5.97665,-28.35437 17.79098,-39.05675 11.81432,-10.70239 25.9915,-15.98408 42.53155,-15.98408 16.54005,0 30.71723,5.42069 42.53155,16.12307 11.81432,10.70238 17.79098,23.62864 17.79098,38.91776 0,15.28912 -5.97666,28.35437 -17.79098,39.05675 -11.81432,10.70239 -25.9915,15.98409 -42.53155,15.98409 z m 36.69389,-55.04084 c 0,-9.03448 -3.61379,-16.67904 -10.70239,-22.93368 -7.08859,-6.25464 -15.84508,-9.45146 -25.9915,-9.45146 -10.14642,0 -18.90291,3.19682 -25.99151,9.45146 -7.08859,6.25464 -10.70238,13.8992 -10.70238,22.93368 0,8.89549 3.61379,16.54005 10.70238,22.93368 7.22759,6.25464 15.84509,9.45146 25.99151,9.45146 10.14642,0 18.76392,-3.19682 25.85251,-9.45146 7.22759,-6.39363 10.84138,-14.03819 10.84138,-22.93368 z m 120.08913,54.48487 c 0,0 -54.76285,0 -54.76285,0 0,0 0,-108.96973 0,-108.96973 0,0 54.76285,0 54.76285,0 15.15013,0 28.21538,5.28169 38.91776,15.98408 10.70238,10.70238 16.12307,23.48964 16.12307,38.50078 0,15.01114 -5.42069,27.7984 -16.12307,38.50079 -10.70238,10.70238 -23.76763,15.98408 -38.91776,15.98408 z m -31.13421,-86.59202 c 0,0 0,64.2143 0,64.2143 0,0 31.13421,0 31.13421,0 8.75649,0 16.12307,-3.19681 22.23872,-9.45145 6.25464,-6.25464 9.31246,-13.8992 9.31246,-22.6557 0,-8.89549 -3.05782,-16.40106 -9.31246,-22.6557 -6.11565,-6.25464 -13.48223,-9.45145 -22.23872,-9.45145 z m 229.47582,64.49229 c 0,0 0,22.09973 0,22.09973 0,0 -102.99307,0 -102.99307,0 0,0 0,-108.96973 0,-108.96973 0,0 102.99307,0 102.99307,0 0,0 0,22.09972 0,22.09972 0,0 -79.36443,0 -79.36443,0 0,0 0,21.82175 0,21.82175 0,0 53.51192,0 53.51192,0 0,0 0,20.98779 0,20.98779 0,0 -53.51192,0 -53.51192,0 0,0 0,21.96074 0,21.96074 z"
         id="text1"
         style="font-weight:500;font-size:138.992px;font-family:'Rexton Bold';-inkscape-font-specification:'Rexton Bold,  Medium';fill:#ffffff;stroke-width:2.48199"
         aria-label="ENCODE" /><path
         id="rect2"
         style="display:inline;fill:#241f21;stroke-width:12.7396"
         d="M 0,473.99997 H 323 L 450,677.49995 323,880.99994 H 0 Z" /><path
         id="rect3"
         style="fill:#ffffff"
         d="m 174,544.99998 c 63.42438,0 96,44.99999 96,91.99999 0,58 -81,121 -81,121 h 87 v 51.99999 l -206,1 c 0,0 134,-150.99999 134,-178.99999 0,-12 -9,-32 -33.5,-32 -34.5,0 -32.5,42 -32.5,42 L 74,642 c 0,-61.00003 38,-97.00002 100,-97.00002 z" /><path
         id="rect6"
         style="fill:#aa0000;stroke-width:30.3859"
         d="m 999,474.99998 v 305.99999 c 0,55.4 -44.6,100 -100,100 L 410,880.99996 535,677.99997 410,474.99998 Z" /><path
         id="rect4"
         style="fill:#ffffff"
         d="m 678,563 h 56 l -8,40 h -56 z" /><path
         id="rect4-9"
         style="fill:#ffffff"
         d="m 663,629.99997 h 57 l -33,161.99999 h -57 z" /><path
         id="rect5"
         style="fill:#ffffff"
         d="m 854,580 -59,15 -7.5,35 H 756 l -6,39 h 29.14258 L 765,735 v 25 c 0,19.99999 24,36 45,36 14,0 41,-3 41,-3 l 5,-37 c 0,0 -8,4 -22,4 -3,0 -13,-5 -13,-12 v -13 l 14.05078,-66 H 875 l 6,-39 h -37.64453 z" /><path
         d="M 1638.8515,792.41608 V 689.11528 H 1272.9543 V 477.68656 h 291.5592 V 376.31662 H 1272.9543 V 193.85073 h 346.5886 V 91.515364 H 1159.9992 V 792.41608 Z m 515.5383,0 V 453.55086 c 0,-105.23165 -64.6836,-156.39934 -172.8116,-156.39934 -55.0294,0 -114.8859,18.34314 -148.6759,64.68368 V 308.73666 H 1730.567 v 483.67942 h 111.9896 V 480.58284 c 17.3777,-55.0294 62.7528,-78.19967 110.0588,-78.19967 58.8911,0 89.7848,24.1357 89.7848,78.19967 v 311.83324 z m 551.2591,-167.01904 h -104.2662 c -10.6197,53.09854 -52.1331,78.19966 -108.1279,78.19966 -76.2688,0 -125.5057,-56.96025 -125.5057,-153.50305 0,-89.7848 51.1677,-153.50304 120.6785,-153.50304 59.8566,0 103.3008,24.13569 114.886,72.40709 h 100.4045 c -18.3432,-115.85135 -100.4045,-171.84618 -215.2905,-171.84618 -143.8487,0 -236.5298,106.19708 -236.5298,252.94213 0,171.84618 102.3353,254.87299 239.4261,254.87299 114.8859,0 195.0165,-53.09854 214.325,-179.5696 z m 550.2936,-74.33796 c 0,-132.26363 -83.9923,-253.90756 -244.2533,-253.90756 -163.1573,0 -246.1841,121.64393 -246.1841,253.90756 0,135.15992 83.0268,253.90756 246.1841,253.90756 161.2265,0 244.2533,-118.74764 244.2533,-253.90756 z m -115.8514,0 c 0,90.75023 -49.2368,155.43391 -128.4019,155.43391 -78.1997,0 -131.2982,-64.68368 -131.2982,-155.43391 0,-89.7848 53.0985,-156.39933 131.2982,-156.39933 79.1651,0 128.4019,66.61453 128.4019,156.39933 z m 640.0779,241.357 V 91.515364 H 3666.2485 V 350.25006 c -23.1703,-34.7554 -70.4763,-53.09854 -126.4711,-53.09854 -124.5402,0 -215.2904,82.06138 -215.2904,251.01128 0,166.05361 83.0268,256.80384 217.2213,256.80384 57.9256,0 114.8859,-19.30856 141.9179,-73.37253 v 60.82197 z M 3666.2485,615.74276 c 0,49.23682 -53.0986,89.7848 -110.0588,89.7848 -74.338,0 -119.7131,-54.06397 -119.7131,-157.36476 0,-101.36994 47.306,-153.50305 117.7822,-153.50305 59.8566,0 103.3008,38.61712 111.9897,86.88852 z m 672.9029,-34.75541 v -5.79257 c 0,-178.60417 -83.0268,-278.04326 -228.8064,-278.04326 -135.16,0 -232.6682,96.5428 -232.6682,251.01128 0,163.15733 91.7157,256.80384 241.357,256.80384 116.8168,0 193.0856,-61.78739 215.2905,-175.70789 h -106.1971 c -11.5852,50.20225 -50.2023,80.13052 -113.9205,80.13052 -69.5108,0 -117.7822,-42.47883 -121.644,-128.40192 z M 4223.3,500.85683 h -228.8064 c 5.7926,-66.61453 51.1677,-113.9205 116.8168,-113.9205 61.7874,0 108.1279,44.40968 111.9896,113.9205 z m 692.2121,291.55925 V 689.11528 H 4561.2 c 6.758,-70.47624 69.5108,-134.19449 148.6759,-171.84618 139.987,-66.61453 201.7744,-140.95248 201.7744,-239.42614 0,-116.81678 -83.9922,-202.739871 -230.7372,-202.739871 -140.9525,0 -241.357,89.784801 -245.2188,239.426141 h 110.0588 c 2.8963,-84.95766 60.822,-137.09078 127.4365,-137.09078 71.4417,0 118.7477,40.54798 118.7477,103.3008 0,53.09854 -44.4097,105.23165 -137.0908,148.67591 -130.3328,61.78739 -221.083,180.53503 -221.083,309.90238 v 53.09854 z m 262.5965,0 V 91.515364 H 5061.2918 V 792.41608 Z M 5600,706.49299 h -28.9628 c -87.854,0 -103.3008,-13.516 -103.3008,-62.75282 V 408.17574 h 106.1971 v -99.43908 h -106.1971 v -144.8142 h -111.0242 v 144.8142 h -74.338 v 99.43908 h 74.338 v 249.08042 c 0,112.95507 36.6862,149.64134 209.4978,149.64134 h 21.2394 z"
         id="text6"
         style="font-weight:600;font-size:965.428px;font-family:'FOT-AnticCezanne Pro';-inkscape-font-specification:'FOT-AnticCezanne Pro Semi-Bold';fill:#ffffff;stroke-width:17.2398"
         aria-label="Encode2It" /><g
         id="layer1-1"
         transform="matrix(5.8258784,0,0,5.8258784,-153.43303,-830.01906)"><path
           style="font-weight:bold;font-stretch:expanded;font-size:36px;font-family:'D-DIN Exp';-inkscape-font-specification:'D-DIN Exp Bold Expanded';text-align:center;text-anchor:middle;white-space:pre;inline-size:156.655;fill:#ffffff;stroke-width:7.416;stroke-linecap:round;stroke-linejoin:round"
           d="m -2.6212578,94.19145 c -1.584,-1.332 -3.744,-2.016 -6.516,-2.016 H -19.865258 v 24.84 h 4.716 v -9.432 h 5.8320002 c 2.88,0 5.112,-0.648 6.696,-2.016 1.584,-1.332 2.37599999,-3.204 2.37599999,-5.616 0,-2.484 -0.79199999,-4.392 -2.37599999,-5.76 z m -2.34,5.724 c 0,2.376 -1.332,3.528 -3.996,3.528 h -6.1920002 v -7.164 h 6.1920002 c 1.26,0 2.232,0.324 2.952,0.9 0.684,0.612 1.044,1.512 1.044,2.736 z m 7.7040093,-7.848 v 3.564 h 4.428 v -3.564 z m 0,6.228 v 18.72 h 4.428 v -18.72 z m 10.4759725,16.848 c 1.512,1.476 3.6,2.196 6.264,2.196 2.592,0 4.608,-0.612 6.084,-1.836 1.44,-1.224 2.196,-2.88 2.196,-5.04 v -0.144 h -4.356 v 0.144 c 0,0.9 -0.36,1.62 -1.008,2.124 -0.648,0.504 -1.548,0.756 -2.7,0.756 -1.44,0 -2.52,-0.36 -3.24,-1.08 -0.72,-0.72 -1.08,-1.908 -1.08,-3.564 v -2.124 c 0,-1.584 0.324,-2.772 1.044,-3.528 0.72,-0.72 1.764,-1.116 3.168,-1.116 1.188,0 2.124,0.288 2.808,0.828 0.684,0.54 1.044,1.26 1.044,2.196 v 0.144 h 4.356 v -0.216 c 0,-2.16 -0.756,-3.852 -2.196,-5.076 -1.476,-1.224 -3.528,-1.836 -6.12,-1.836 -2.664,0 -4.752,0.756 -6.264,2.196 -1.512,1.44 -2.268,3.564 -2.268,6.336 v 2.232 c 0,2.808 0.756,4.968 2.268,6.408 z m 22.284,-6.264 h 12.852 v -2.16 c 0,-2.808 -0.792,-4.968 -2.304,-6.48 -1.548,-1.512 -3.672,-2.268 -6.336,-2.268 -2.7,0 -4.824,0.792 -6.336,2.304 -1.548,1.512 -2.304,3.708 -2.304,6.552 v 1.62 c 0,2.916 0.756,5.112 2.34,6.624 1.584,1.512 3.744,2.268 6.516,2.268 2.412,0 4.356,-0.54 5.832,-1.62 1.476,-1.08 2.268,-2.556 2.412,-4.356 v -0.216 h -4.356 l -0.036,0.108 c -0.108,0.72 -0.504,1.26 -1.152,1.62 -0.648,0.396 -1.512,0.576 -2.52,0.576 -3.096,0 -4.608,-1.476 -4.608,-4.5 z m 0,-3.06 c 0.144,-2.664 1.548,-4.032 4.212,-4.032 1.26,0 2.268,0.324 3.024,0.972 0.756,0.648 1.152,1.584 1.152,2.808 v 0.252 z m 17.927969,9.72 c 1.008,1.008 2.592,1.476 4.716,1.476 h 2.484 v -3.852 h -1.692 c -0.972,0 -1.656,-0.18 -2.016,-0.54 -0.36,-0.36 -0.54,-1.008 -0.54,-1.944 v -18.504 h -4.464 v 18.792 c 0,2.052 0.504,3.564 1.512,4.572 z m 28.763971,-9.108 c -0.648,-0.936 -1.62,-1.692 -2.88,-2.196 1.116,-0.504 1.98,-1.188 2.592,-2.088 0.612,-0.9 0.936,-1.908 0.936,-3.06 0,-2.232 -0.756,-3.924 -2.232,-5.112 -1.512,-1.188 -3.636,-1.8 -6.444,-1.8 h -10.764 v 24.84 h 11.232 c 2.736,0 4.86,-0.612 6.336,-1.836 1.476,-1.224 2.232,-2.988 2.232,-5.292 0,-1.332 -0.36,-2.484 -1.008,-3.456 z m -14.076,-10.152 h 6.264 c 2.484,0 3.744,1.044 3.744,3.096 0,1.98 -1.332,2.952 -3.924,2.952 h -6.084 z m 10.404,13.284 c 0,2.232 -1.296,3.348 -3.816,3.348 h -6.588 v -6.48 h 6.408 c 2.664,0 3.996,1.044 3.996,3.132 z m 10.223975,5.58 c 1.512,1.476 3.6,2.196 6.264,2.196 2.628,0 4.68,-0.72 6.192001,-2.196 1.512,-1.44 2.268,-3.6 2.268,-6.408 v -2.232 c 0,-2.736 -0.756,-4.86 -2.268,-6.336 -1.512001,-1.44 -3.564001,-2.196 -6.192001,-2.196 -2.664,0 -4.752,0.756 -6.264,2.196 -1.512,1.44 -2.268,3.564 -2.268,6.336 v 2.232 c 0,2.808 0.756,4.968 2.268,6.408 z m 10.296,-6.444 c 0,3.096 -1.368,4.644 -4.032,4.644 -2.736,0 -4.104,-1.548 -4.104,-4.644 v -2.124 c 0,-3.096 1.368,-4.644 4.104,-4.644 1.296,0 2.268,0.396 2.988,1.152 0.684,0.756 1.044,1.908 1.044,3.492 z m 8.171991,-16.632 v 3.564 h 4.428 v -3.564 z m 0,6.228 v 18.72 h 4.428 v -18.72 z"
           id="text1-3"
           transform="translate(86.678112,16.570815)"
           aria-label="PicelBoi" /><g
           id="default_default-geometry_Lines"
           transform="matrix(0.02802526,0,0,0.02802526,17.819808,90.436367)"
           style="stroke:#ffffff"><path
             id="polyline1"
             style="fill:none;stroke-width:25;stroke-linecap:round"
             d="m 594.75793,1208.8125 -15.36132,229.6814" /><path
             id="polyline2"
             style="fill:none;stroke-width:25;stroke-linecap:round"
             d="m 474.3457,1412.7186 13.21073,-238.9737" /><path
             id="polyline3"
             style="fill:none;stroke-width:25;stroke-linecap:round"
             d="m 474.3457,1412.7186 105.05091,25.7753" /><path
             id="polyline4"
             style="fill:none;stroke-width:25;stroke-linecap:round"
             d="m 328.39358,1341.8721 104.12699,128.4973 204.27313,91.1448" /><path
             id="polyline5"
             style="fill:none;stroke-width:25;stroke-linecap:round"
             d="M 594.75793,1208.8125 717.84564,986.6687" /><path
             id="polyline6"
             style="fill:none;stroke-width:25;stroke-linecap:round"
             d="M 619.24207,938.02081 487.55643,1173.7449" /><path
             id="polyline7"
             style="fill:none;stroke-width:25;stroke-linecap:round"
             d="m 1037.8782,708.07605 151.2824,-39.0846 30.2861,11.84583" /><path
             id="polyline8"
             style="fill:none;stroke-width:25;stroke-linecap:round"
             d="m 1080.9661,628.79382 -118.99259,17.318" /><path
             id="polyline9"
             style="fill:none;stroke-width:25;stroke-linecap:round"
             d="M 889.39325,652.96106 1043.0232,618.73828" /><path
             id="polyline10"
             style="fill:none;stroke-width:25;stroke-linecap:round"
             d="M 1037.8782,708.07605 866.96643,818.3501 717.84564,986.6687" /><path
             id="polyline11"
             style="fill:none;stroke-width:25;stroke-linecap:round"
             d="M 619.24207,938.02081 780.29547,758.41894 961.97351,646.11182" /><path
             id="polyline12"
             style="fill:none;stroke-width:25;stroke-linecap:round"
             d="M 889.39325,652.96106 718.91229,755.27808 572.80127,913.79736" /><path
             id="polyline13"
             style="fill:none;stroke-width:25;stroke-linecap:round"
             d="m 1080.9661,628.79382 108.1945,40.19763" /><path
             id="polyline14"
             style="fill:none;stroke-width:25;stroke-linecap:round"
             d="m 1466.6201,1011.7036 72.8418,107.4402 -21.8572,131.4963" /><path
             id="polyline15"
             style="fill:none;stroke-width:25;stroke-linecap:round"
             d="m 1446.8134,995.52838 19.8067,16.17522" /><path
             id="polyline16"
             style="fill:none;stroke-width:25;stroke-linecap:round"
             d="m 449.80701,1239.7828 -0.74536,-107.326" /><path
             id="polyline17"
             style="fill:none;stroke-width:25;stroke-linecap:round"
             d="M 520.16614,884.8562 465.40747,990.09625 449.06165,1132.4568" /><path
             id="polyline18"
             style="fill:none;stroke-width:25;stroke-linecap:round"
             d="m 584.94391,1359.4376 125.96881,47.3136" /><path
             id="polyline19"
             style="fill:none;stroke-width:25;stroke-linecap:round"
             d="m 1324.4063,1278.0305 -177.2831,93.776 -219.72543,49.9672 -216.48505,-15.0225" /><path
             id="polyline20"
             style="fill:none;stroke-width:25;stroke-linecap:round"
             d="m 1324.4063,1278.0305 106.4014,-109.8708" /><path
             id="polyline21"
             style="fill:none;stroke-width:25;stroke-linecap:round"
             d="m 474.3457,1412.7186 -29.26953,-66.0904" /><path
             id="polyline22"
             style="fill:none;stroke-width:25;stroke-linecap:round"
             d="m 454.64224,1124.6104 -9.56607,222.0178" /><path
             id="polyline23"
             style="fill:none;stroke-width:25;stroke-linecap:round"
             d="m 1329.0609,749.1206 59.5764,83.91724 50.8134,95.08154 14.961,134.87032" /><path
             id="polyline24"
             style="fill:none;stroke-width:25;stroke-linecap:round"
             d="m 1394.0082,1391.6809 -215.2241,123.2925 -272.88975,66.8954 -269.10065,-20.3546" /><path
             id="polyline25"
             style="fill:none;stroke-width:25;stroke-linecap:round"
             d="m 1454.4117,1062.9897 -23.604,105.17" /><path
             id="polyline26"
             style="fill:none;stroke-width:25;stroke-linecap:round"
             d="m 520.16614,884.8562 77.01159,-94.66553 130.20685,-83.28064" /><path
             id="polyline27"
             style="fill:none;stroke-width:25;stroke-linecap:round"
             d="M 1043.0232,618.73828 879.96435,631.07654 727.38458,706.91003" /><path
             id="polyline28"
             style="fill:none;stroke-width:25;stroke-linecap:round"
             d="m 1080.9661,628.79382 -37.9429,-10.05554" /><path
             id="polyline29"
             style="fill:none;stroke-width:25;stroke-linecap:round"
             d="m 328.39358,1341.8721 6.07157,-136.4768 120.57104,-113.3899" /><path
             id="polyline30"
             style="fill:none;stroke-width:25;stroke-linecap:round"
             d="m 1394.0082,1391.6809 123.5965,-141.0408" /><path
             id="polyline31"
             style="fill:none;stroke-width:25;stroke-linecap:round"
             d="M 454.64224,1124.6104 572.80127,913.79736" /><path
             id="polyline32"
             style="fill:none;stroke-width:25;stroke-linecap:round"
             d="M 1329.0609,749.1206 1219.4467,680.83728" /></g></g></g></g></svg>
